<?xml version="1.0" standalone="no"?>
<!DOCTYPE svg PUBLIC "-//W3C//DTD SVG 20010904//EN"
 "http://www.w3.org/TR/2001/REC-SVG-20010904/DTD/svg10.dtd">
<svg version="1.0" xmlns="http://www.w3.org/2000/svg"
 width="1024.000000pt" height="1024.000000pt" viewBox="0 0 1024.000000 1024.000000"
 preserveAspectRatio="xMidYMid meet">
<metadata>
Created by potrace 1.11, written by Peter Selinger 2001-2013
</metadata>
<g transform="translate(0.000000,1024.000000) scale(0.100000,-0.100000)"
fill="#000000" stroke="none">
<path d="M8672 9339 c-20 -8 -219 -144 -232 -159 -3 -3 -25 -21 -50 -40 -79
-62 -223 -193 -306 -280 -344 -359 -606 -797 -806 -1345 -36 -99 -114 -346
-123 -386 -2 -9 -8 -34 -15 -55 -41 -140 -156 -602 -185 -744 -3 -15 -92 -399
-101 -432 -2 -10 -6 -26 -8 -35 -2 -10 -21 -81 -41 -158 -20 -77 -39 -147 -41
-155 -42 -169 -138 -456 -219 -655 -190 -468 -497 -882 -855 -1155 -84 -64
-265 -180 -281 -180 -5 0 -9 -4 -9 -9 0 -5 -11 -12 -25 -15 -33 -8 -77 15
-200 107 -223 167 -435 408 -689 784 -64 95 -116 176 -116 180 0 5 22 31 48
58 156 162 251 312 325 510 25 67 74 243 82 295 29 200 40 334 40 527 0 129
-2 144 -20 157 -36 26 -70 -3 -80 -69 -18 -108 -107 -423 -142 -505 -118 -268
-197 -395 -373 -602 l-57 -66 -23 41 c-89 167 -175 338 -215 427 -26 58 -53
119 -61 137 -31 69 -108 274 -141 373 -35 109 -107 378 -117 440 -3 19 -10 58
-15 87 -6 29 -13 74 -16 100 -4 26 -8 58 -10 70 -16 98 -22 394 -12 524 14
170 69 410 129 564 30 77 56 134 185 405 99 207 143 315 143 353 0 24 -40 57
-69 57 -34 0 -50 -17 -89 -95 -16 -33 -72 -123 -123 -200 -183 -278 -267 -430
-340 -622 -37 -97 -83 -250 -95 -313 -2 -14 -9 -45 -14 -70 -41 -192 -46 -463
-15 -720 10 -85 51 -287 81 -400 14 -52 27 -104 30 -116 7 -37 101 -306 143
-409 84 -208 104 -254 196 -440 237 -479 489 -883 769 -1235 121 -152 353
-385 458 -460 42 -30 77 -58 77 -61 2 -13 -311 -190 -479 -271 -252 -122 -532
-213 -745 -242 -183 -25 -489 -29 -654 -7 -103 13 -103 14 -185 74 -157 117
-397 377 -551 597 -437 624 -645 1152 -643 1628 1 161 14 242 58 374 53 159
127 277 246 394 130 129 276 195 427 195 45 -1 98 -5 117 -9 41 -10 66 -8 85
8 53 44 -83 135 -250 166 -50 9 -166 9 -223 0 -106 -17 -260 -85 -352 -154
-199 -149 -326 -374 -396 -697 -14 -65 -26 -195 -26 -295 -2 -428 155 -891
500 -1475 113 -191 274 -427 340 -497 14 -16 22 -28 18 -28 -22 0 -266 155
-396 251 -115 85 -129 92 -178 95 -128 5 -208 -96 -182 -229 43 -218 193 -577
346 -829 457 -753 1163 -1241 2059 -1423 44 -9 87 -18 96 -20 26 -5 78 -13
164 -24 402 -52 761 -49 1095 10 292 51 537 131 820 267 275 132 588 354 780
553 103 107 151 160 195 214 27 33 52 62 55 65 15 11 161 220 217 310 74 120
119 201 181 326 51 103 61 126 106 234 15 36 31 74 36 85 10 24 93 271 114
340 34 115 93 367 111 475 3 19 7 46 10 60 6 31 12 71 20 130 3 25 8 56 10 70
3 14 7 51 10 83 2 32 7 77 10 100 34 286 37 793 10 1492 -11 275 -14 363 -21
565 -11 367 -12 430 -14 795 -1 314 3 490 15 600 11 106 18 154 37 265 52 311
156 580 316 818 94 140 161 219 315 374 74 76 87 94 87 122 0 50 -39 74 -88
55z m-530 -611 c-18 -23 -94 -172 -124 -243 -57 -135 -75 -192 -138 -425 -27
-100 -64 -342 -75 -500 -3 -41 -8 -82 -10 -90 -2 -8 -7 -73 -10 -145 -4 -71
-8 -150 -11 -175 -4 -47 -10 -588 -20 -1705 -3 -357 -7 -675 -8 -705 -18 -299
-30 -433 -52 -585 -8 -55 -17 -116 -19 -136 -3 -20 -14 -81 -25 -135 -10 -55
-21 -110 -24 -124 -10 -56 -70 -274 -111 -400 -236 -729 -646 -1308 -1180
-1668 -86 -58 -361 -212 -378 -212 -5 0 -36 -13 -70 -28 -143 -66 -451 -156
-602 -177 -64 -8 -113 -16 -135 -20 -109 -21 -567 -21 -725 -1 -16 2 -57 7
-90 11 -93 10 -121 14 -255 41 -69 14 -134 27 -145 30 -73 14 -359 107 -430
139 -227 103 -306 145 -460 248 -158 105 -251 183 -409 341 -163 164 -309 353
-425 555 -47 79 -161 304 -157 308 1 2 56 -19 122 -46 106 -43 315 -117 354
-126 151 -34 219 -60 285 -109 201 -150 493 -286 694 -323 14 -2 28 -6 31 -8
4 -2 29 -7 57 -10 27 -3 60 -8 74 -11 13 -3 96 -7 184 -9 395 -8 630 74 801
279 28 34 67 90 86 126 35 63 82 197 93 263 10 57 16 67 48 83 18 9 70 39 117
68 47 28 93 56 102 61 9 6 45 27 79 48 60 37 63 38 98 24 91 -37 203 -57 313
-57 268 -1 514 157 707 455 102 156 181 342 216 510 14 67 3 108 -35 120 -41
13 -73 -16 -100 -90 -15 -38 -42 -101 -60 -139 -40 -83 -165 -271 -218 -328
-20 -22 -46 -50 -57 -62 -65 -70 -197 -152 -283 -175 -52 -14 -172 -22 -172
-12 0 5 29 27 65 50 35 23 70 48 77 55 7 7 32 26 56 43 122 89 294 259 447
444 129 155 308 456 399 669 15 36 34 79 41 95 57 132 200 577 240 750 9 39
18 77 21 85 5 17 231 999 239 1040 15 75 96 374 135 505 151 498 363 940 617
1283 83 112 104 138 177 219 35 39 63 61 38 31z m-3531 -5856 c-17 -32 -102
-111 -162 -151 -61 -41 -170 -86 -229 -96 -19 -3 -42 -8 -50 -10 -8 -2 -40 -7
-70 -10 -30 -4 -58 -9 -62 -11 -11 -7 -258 -6 -320 1 -119 13 -119 21 -3 34
61 7 155 21 210 33 55 11 109 22 120 24 96 17 431 135 525 185 45 23 53 23 41
1z"/>
<path d="M2642 5399 c-138 -18 -266 -84 -335 -174 -80 -105 -106 -200 -103
-367 2 -96 8 -127 34 -206 61 -179 169 -298 351 -386 97 -47 228 -79 461 -112
285 -40 530 -131 660 -243 185 -161 247 -304 177 -409 -47 -71 -149 -139 -257
-171 -25 -7 -57 -17 -72 -21 -14 -5 -77 -7 -140 -5 -132 3 -233 27 -347 81
-116 56 -171 101 -229 184 -42 59 -68 74 -103 56 -37 -18 -46 -57 -23 -108 54
-122 170 -239 315 -317 70 -37 229 -104 229 -95 0 2 11 -1 24 -6 49 -18 115
-25 246 -23 114 1 149 5 223 27 362 108 532 373 431 674 -70 209 -276 412
-546 537 -62 28 -232 89 -248 88 -3 0 -25 6 -50 13 -40 12 -193 37 -365 60
-162 21 -319 86 -383 159 -62 71 -87 149 -87 275 0 121 15 158 86 205 77 50
252 67 409 40 126 -23 296 -102 393 -185 50 -42 60 -47 89 -41 43 9 60 41 45
85 -13 38 -123 148 -198 198 -71 47 -185 104 -257 129 -141 49 -316 72 -430
58z"/>
</g>
</svg>
