<?xml version="1.0" encoding="UTF-8" standalone="no"?>
<!DOCTYPE svg PUBLIC "-//W3C//DTD SVG 1.1//EN" "http://www.w3.org/Graphics/SVG/1.1/DTD/svg11.dtd">
<svg width="100%" height="100%" viewBox="0 0 24 24" version="1.1" xmlns="http://www.w3.org/2000/svg" xmlns:xlink="http://www.w3.org/1999/xlink" xml:space="preserve" xmlns:serif="http://www.serif.com/" style="fill-rule:evenodd;clip-rule:evenodd;stroke-linejoin:round;stroke-miterlimit:1.41421;">
    <path d="M20,3L19,3L19,1L17,1L17,3L7,3L7,1L5,1L5,3L4,3C2.9,3 2,3.9 2,5L2,21C2,22.1 2.9,23 4,23L20,23C21.1,23 22,22.1 22,21L22,5C22,3.9 21.1,3 20,3ZM20,21L4,21L4,8L20,8L20,21Z" style="fill:rgb(62,62,62);fill-rule:nonzero;"/>
    <rect x="0" y="0" width="24" height="24" style="fill:none;"/>
</svg>
