<?xml version="1.0" encoding="UTF-8" standalone="no"?>
<!DOCTYPE svg PUBLIC "-//W3C//DTD SVG 1.1//EN" "http://www.w3.org/Graphics/SVG/1.1/DTD/svg11.dtd">
<svg width="100%" height="100%" viewBox="0 0 80 80" version="1.1" xmlns="http://www.w3.org/2000/svg" xmlns:xlink="http://www.w3.org/1999/xlink" xml:space="preserve" xmlns:serif="http://www.serif.com/" style="fill-rule:evenodd;clip-rule:evenodd;stroke-linejoin:round;stroke-miterlimit:1.41421;">
    <g transform="matrix(1,0,0,1,-2221.11,-59.6166)">
        <g transform="matrix(0.946125,0,0,0.947219,112.093,3.14661)">
            <path d="M2271.27,59.617C2259.82,59.617 2258.39,59.665 2253.89,59.87C2249.4,60.075 2246.34,60.788 2243.65,61.83C2240.88,62.908 2238.53,64.349 2236.18,66.693C2233.84,69.037 2232.4,71.389 2231.32,74.161C2230.28,76.844 2229.57,79.908 2229.36,84.396C2229.16,88.894 2229.11,90.329 2229.11,101.78C2229.11,113.232 2229.16,114.667 2229.36,119.165C2229.57,123.653 2230.28,126.717 2231.32,129.399C2232.4,132.172 2233.84,134.524 2236.18,136.868C2238.53,139.212 2240.88,140.653 2243.65,141.731C2246.34,142.773 2249.4,143.486 2253.89,143.691C2258.39,143.896 2259.82,143.944 2271.27,143.944C2282.72,143.944 2284.16,143.896 2288.66,143.691C2293.14,143.486 2296.21,142.773 2298.89,141.731C2301.66,140.653 2304.01,139.212 2306.36,136.868C2308.7,134.524 2310.14,132.172 2311.22,129.399C2312.26,126.717 2312.98,123.653 2313.18,119.165C2313.39,114.667 2313.44,113.232 2313.44,101.78C2313.44,90.329 2313.39,88.894 2313.18,84.396C2312.98,79.908 2312.26,76.844 2311.22,74.161C2310.14,71.389 2308.7,69.037 2306.36,66.693C2304.01,64.349 2301.66,62.908 2298.89,61.83C2296.21,60.788 2293.14,60.075 2288.66,59.87C2284.16,59.665 2282.72,59.617 2271.27,59.617L2271.27,59.617ZM2271.27,67.162C2282.55,67.162 2283.88,67.205 2288.34,67.408C2292.45,67.596 2294.69,68.283 2296.18,68.862C2298.15,69.628 2299.55,70.543 2301.03,72.021C2302.51,73.498 2303.43,74.905 2304.19,76.876C2304.77,78.364 2305.46,80.6 2305.64,84.717C2305.85,89.17 2305.89,90.505 2305.89,101.78C2305.89,113.056 2305.85,114.391 2305.64,118.844C2305.46,122.961 2304.77,125.197 2304.19,126.685C2303.43,128.656 2302.51,130.063 2301.03,131.54C2299.55,133.018 2298.15,133.933 2296.18,134.699C2294.69,135.277 2292.45,135.965 2288.34,136.153C2283.88,136.356 2282.55,136.399 2271.27,136.399C2260,136.399 2258.66,136.356 2254.21,136.153C2250.09,135.965 2247.86,135.277 2246.37,134.699C2244.4,133.933 2242.99,133.018 2241.51,131.54C2240.03,130.063 2239.12,128.656 2238.35,126.685C2237.78,125.197 2237.09,122.961 2236.9,118.844C2236.7,114.391 2236.65,113.056 2236.65,101.78C2236.65,90.505 2236.7,89.17 2236.9,84.717C2237.09,80.6 2237.78,78.364 2238.35,76.876C2239.12,74.905 2240.03,73.498 2241.51,72.021C2242.99,70.543 2244.4,69.628 2246.37,68.862C2247.86,68.283 2250.09,67.596 2254.21,67.408C2258.66,67.205 2260,67.162 2271.27,67.162ZM2271.27,80.143C2259.32,80.143 2249.63,89.83 2249.63,101.78C2249.63,113.731 2259.32,123.418 2271.27,123.418C2283.22,123.418 2292.91,113.731 2292.91,101.78C2292.91,89.83 2283.22,80.143 2271.27,80.143ZM2271.27,115.873C2263.49,115.873 2257.18,109.564 2257.18,101.78C2257.18,93.997 2263.49,87.688 2271.27,87.688C2279.05,87.688 2285.37,93.997 2285.37,101.78C2285.37,109.564 2279.05,115.873 2271.27,115.873ZM2298.79,79.311C2298.79,82.1 2296.53,84.361 2293.74,84.361C2290.95,84.361 2288.69,82.1 2288.69,79.311C2288.69,76.523 2290.95,74.262 2293.74,74.262C2296.53,74.262 2298.79,76.523 2298.79,79.311Z" style="fill:rgb(62,62,62);fill-rule:nonzero;"/>
        </g>
    </g>
</svg>
