<?xml version="1.0" encoding="UTF-8" standalone="no"?>
<!DOCTYPE svg PUBLIC "-//W3C//DTD SVG 1.1//EN" "http://www.w3.org/Graphics/SVG/1.1/DTD/svg11.dtd">
<svg width="100%" height="100%" viewBox="0 0 868 208" version="1.1" xmlns="http://www.w3.org/2000/svg" xmlns:xlink="http://www.w3.org/1999/xlink" xml:space="preserve" xmlns:serif="http://www.serif.com/" style="fill-rule:evenodd;clip-rule:evenodd;stroke-linejoin:round;stroke-miterlimit:1.41421;">
    <g transform="matrix(1,0,0,1,-2153.44,-360.287)">
        <g>
            <g>
                <g transform="matrix(0.982038,0,0,0.982038,40.4497,5.29459)">
                    <rect x="2151.64" y="361.486" width="211.639" height="211.639" style="fill:rgb(201,187,229);"/>
                </g>
                <g transform="matrix(1.2244,0,0,1.26372,-529.868,-149.826)">
                    <rect x="2191.53" y="501.428" width="169.746" height="66.697" style="fill:white;"/>
                </g>
                <g transform="matrix(1.1311,0,0,0.78842,-286.249,98.2578)">
                    <rect x="2168.14" y="473.516" width="150.002" height="25.573" style="fill:rgb(156,254,218);"/>
                </g>
                <g transform="matrix(1.1311,0,0,0.78842,-286.249,123.455)">
                    <rect x="2168.14" y="473.516" width="150.002" height="25.573" style="fill:rgb(156,254,218);"/>
                </g>
                <g transform="matrix(1.1311,0,0,0.78842,-286.249,148.653)">
                    <rect x="2168.14" y="473.516" width="150.002" height="25.573" style="fill:rgb(156,254,218);"/>
                </g>
                <g transform="matrix(0.531891,0,0,0.38123,1012.93,369.444)">
                    <rect x="2168.14" y="473.516" width="150.002" height="25.573" style="fill:rgb(62,62,62);"/>
                </g>
            </g>
            <g transform="matrix(1,0,0,1,219.921,0)">
                <g transform="matrix(0.982038,0,0,0.982038,40.4497,5.29459)">
                    <rect x="2151.64" y="361.486" width="211.639" height="211.639" style="fill:rgb(201,187,229);"/>
                </g>
                <g transform="matrix(1.2244,0,0,1.26372,-529.868,-149.826)">
                    <rect x="2191.53" y="501.428" width="169.746" height="66.697" style="fill:white;"/>
                </g>
                <g transform="matrix(1.1311,0,0,0.78842,-286.249,98.2578)">
                    <rect x="2168.14" y="473.516" width="150.002" height="25.573" style="fill:rgb(156,254,218);"/>
                </g>
                <g transform="matrix(1.1311,0,0,0.78842,-286.249,123.455)">
                    <rect x="2168.14" y="473.516" width="150.002" height="25.573" style="fill:rgb(156,254,218);"/>
                </g>
                <g transform="matrix(1.1311,0,0,0.78842,-286.249,148.653)">
                    <rect x="2168.14" y="473.516" width="150.002" height="25.573" style="fill:rgb(156,254,218);"/>
                </g>
                <g transform="matrix(0.531891,0,0,0.38123,1012.93,369.444)">
                    <rect x="2168.14" y="473.516" width="150.002" height="25.573" style="fill:rgb(62,62,62);"/>
                </g>
            </g>
            <g transform="matrix(1,0,0,1,439.841,0)">
                <g transform="matrix(0.982038,0,0,0.982038,40.4497,5.29459)">
                    <rect x="2151.64" y="361.486" width="211.639" height="211.639" style="fill:rgb(201,187,229);"/>
                </g>
                <g transform="matrix(1.2244,0,0,1.26372,-529.868,-149.826)">
                    <rect x="2191.53" y="501.428" width="169.746" height="66.697" style="fill:white;"/>
                </g>
                <g transform="matrix(1.1311,0,0,0.78842,-286.249,98.2578)">
                    <rect x="2168.14" y="473.516" width="150.002" height="25.573" style="fill:rgb(156,254,218);"/>
                </g>
                <g transform="matrix(1.1311,0,0,0.78842,-286.249,123.455)">
                    <rect x="2168.14" y="473.516" width="150.002" height="25.573" style="fill:rgb(156,254,218);"/>
                </g>
                <g transform="matrix(1.1311,0,0,0.78842,-286.249,148.653)">
                    <rect x="2168.14" y="473.516" width="150.002" height="25.573" style="fill:rgb(156,254,218);"/>
                </g>
                <g transform="matrix(0.531891,0,0,0.38123,1012.93,369.444)">
                    <rect x="2168.14" y="473.516" width="150.002" height="25.573" style="fill:rgb(62,62,62);"/>
                </g>
            </g>
            <g transform="matrix(1,0,0,1,659.762,0)">
                <g transform="matrix(0.982038,0,0,0.982038,40.4497,5.29459)">
                    <rect x="2151.64" y="361.486" width="211.639" height="211.639" style="fill:rgb(201,187,229);"/>
                </g>
                <g transform="matrix(1.2244,0,0,1.26372,-529.868,-149.826)">
                    <rect x="2191.53" y="501.428" width="169.746" height="66.697" style="fill:white;"/>
                </g>
                <g transform="matrix(1.1311,0,0,0.78842,-286.249,98.2578)">
                    <rect x="2168.14" y="473.516" width="150.002" height="25.573" style="fill:rgb(156,254,218);"/>
                </g>
                <g transform="matrix(1.1311,0,0,0.78842,-286.249,123.455)">
                    <rect x="2168.14" y="473.516" width="150.002" height="25.573" style="fill:rgb(156,254,218);"/>
                </g>
                <g transform="matrix(1.1311,0,0,0.78842,-286.249,148.653)">
                    <rect x="2168.14" y="473.516" width="150.002" height="25.573" style="fill:rgb(156,254,218);"/>
                </g>
                <g transform="matrix(0.531891,0,0,0.38123,1012.93,369.444)">
                    <rect x="2168.14" y="473.516" width="150.002" height="25.573" style="fill:rgb(62,62,62);"/>
                </g>
            </g>
        </g>
    </g>
</svg>
