<?xml version="1.0" encoding="UTF-8" standalone="no"?><!DOCTYPE svg PUBLIC "-//W3C//DTD SVG 1.1//EN" "http://www.w3.org/Graphics/SVG/1.1/DTD/svg11.dtd"><svg width="100%" height="100%" viewBox="0 0 155 179" version="1.1" xmlns="http://www.w3.org/2000/svg" xmlns:xlink="http://www.w3.org/1999/xlink" xml:space="preserve" xmlns:serif="http://www.serif.com/" style="fill-rule:evenodd;clip-rule:evenodd;stroke-linejoin:round;stroke-miterlimit:1.41421;"><g><path d="M152.808,0c1.173,0.202 1.722,1.628 0.584,2.689c-1.468,1.375 -2.886,2.806 -4.229,4.323c-2.959,3.341 -5.466,7.126 -7.283,11.296c-4.452,10.216 -4.403,21.839 -4.224,32.914c0.212,13.105 0.918,26.146 1.182,39.167l0.007,0.321c0.19,13.234 -0.885,26.358 -5.124,39.297c-3.698,11.29 -9.693,21.939 -18.161,30.353c-11.586,11.512 -27.693,18.181 -44.168,18.371c-16.366,0.188 -33.085,-3.87 -46.217,-14.106c-11.071,-8.63 -19.381,-21.077 -22.833,-34.544c-0.112,-0.438 -0.254,-1.074 -0.254,-1.074l3.671,-0.765l-3.671,0.765c-0.025,-0.209 -0.068,-0.416 -0.076,-0.626c-0.02,-0.536 0.031,-0.636 0.138,-1.126l0.027,-0.121c0.209,-0.517 0.232,-0.668 0.567,-1.121c0.878,-1.187 2.488,-1.768 3.925,-1.409c0.492,0.123 0.717,0.253 1.151,0.506c0,0 0.217,0.166 0.219,0.167c2.473,1.902 5.029,3.695 7.686,5.3c3.696,2.232 7.734,4.104 11.891,5.547l0.049,0.017c8.421,2.448 17.462,2.803 25.985,0.774c9.168,-2.182 17.403,-7.141 25.286,-12.002c2.632,-1.619 5.38,-2.999 7.928,-4.709c8.705,-5.843 15.347,-14.73 19.444,-24.049c8.395,-19.092 9.66,-40.419 17.366,-60.199c4.638,-11.907 11.804,-22.969 22.062,-31.232c1.901,-1.532 3.866,-2.978 5.888,-4.312c0.218,-0.144 0.21,-0.417 1.184,-0.412Zm-11.592,12.557c-9.654,10.099 -15.267,23.155 -18.985,36.716c-4.743,17.306 -6.788,35.552 -14.54,51.494c-4.922,10.124 -12.647,18.908 -22.366,24.622c-7.287,4.286 -13.839,8.998 -21.78,12.408c-11.604,4.982 -24.673,6.057 -37.05,2.704c0,0 -0.531,-0.122 -1.079,-0.253c-4.47,-1.084 -8.798,-2.706 -13.01,-4.53c-0.08,-0.035 -0.16,-0.07 -0.241,-0.105c5.439,12.767 15.326,23.56 27.83,29.547c10.017,4.796 21.338,6.587 32.508,6.32c12.796,-0.305 25.494,-5.045 35.308,-13.482c11.444,-9.84 18.578,-24.215 21.961,-38.784c2.15,-9.258 2.839,-18.953 2.924,-28.184l0.003,-0.302c0.133,-9.624 0.114,-19.262 0.171,-28.971c0.059,-9.2 0.076,-18.44 1.247,-27.497c0.978,-7.556 2.958,-14.944 7.072,-21.646c0,0 0.087,-0.119 0.027,-0.057Z" style="fill:#c2a2ff;fill-rule:nonzero;"/><path d="M26.462,83.392c5.567,0.04 11.282,2.4 15.11,5.968c0.634,0.591 1.224,1.235 1.695,1.958c0,0 0.168,0.3 0.217,0.52c0.076,0.347 0.027,0.74 -0.15,1.05c-0.406,0.713 -1.281,0.785 -1.872,0.468c-0.598,-0.32 -0.999,-0.937 -1.579,-1.374c-3.99,-3.011 -9.725,-4.282 -14.177,-3.367c-1.834,0.377 -3.663,1.513 -3.991,3.649c-0.416,2.71 0.251,5.73 1.982,7.542c1.806,1.891 4.501,2.584 6.977,3.057c2.379,0.454 4.818,0.578 7.194,1.046c6.807,1.339 13.516,4.551 17.519,10.16c0.437,0.612 0.834,1.253 1.18,1.921c1.509,2.914 1.833,6.461 0.369,9.511c-1.135,2.364 -3.37,4.235 -5.759,5.393c-4.211,2.04 -9.089,2.354 -13.62,1.042c-4.551,-1.318 -8.958,-4.066 -11.077,-8.006c-0.209,-0.389 -0.393,-0.791 -0.539,-1.207l-0.001,-0.003c-0.073,-0.477 -0.163,-0.622 0.028,-1.089c0.136,-0.333 0.401,-0.618 0.726,-0.754c0,0 0.518,-0.096 0.518,-0.096c0.173,0.037 0.356,0.044 0.52,0.111c0.466,0.192 0.51,0.356 0.803,0.742c1.214,2.4 3.72,3.897 6.271,4.922c4.386,1.763 9.347,1.966 13.52,-0.529c1.564,-0.936 3.082,-2.203 3.245,-4.05c0.16,-1.809 -0.935,-3.6 -2.175,-5.018c-3.961,-4.533 -10.413,-6.492 -16.316,-7.168c-5.504,-0.648 -11.275,-1.824 -14.884,-6.418c-1.395,-1.776 -2.266,-3.956 -2.673,-6.152l-0.008,-0.047c-0.597,-3.935 -0.044,-8.299 3.028,-11.114c2.042,-1.871 4.965,-2.652 7.774,-2.668c0.048,0 0.096,0 0.145,0Z" style="fill:#fff;fill-rule:nonzero;"/><path d="M18.796,65.164c2.551,0.03 5.128,0.728 7.22,2.114c0.036,0.023 0.086,0.06 0.086,0.06l0.491,0.657l-0.02,0.733l-0.562,0.453l-0.824,0.02c-3.9,-1.126 -8.29,0.206 -11.38,3.036c-0.751,0.633 -1.433,1.346 -2.048,2.112c0,0 -0.625,0.74 -1.072,1.382c-0.247,0.356 -0.468,0.731 -0.704,1.093c-0.241,0.37 -0.321,0.507 -0.468,0.758c-0.264,0.452 -0.508,0.916 -0.734,1.388c-3.008,6.304 -2.547,13.711 -0.836,20.175c2.16,8.165 6.343,15.686 11.059,22.715c6.184,9.215 14.169,17.803 25.037,20.347c4.277,1.002 8.785,0.984 13.09,0.125c0,0 0.88,-0.14 1.588,-0.322c3,-0.769 5.697,-2.504 7.561,-5.111c1.225,-1.727 2.344,-3.624 3.339,-5.567l0.078,-0.148l0.596,-0.584l0.722,-0.088l0.523,0.5c0,0 0.129,0.827 0.129,0.827l-0.013,0.091c-0.397,2.325 -0.862,4.652 -1.664,6.861l-0.023,0.063c-1.392,3.433 -3.743,6.453 -7.288,8.327c-0.092,0.049 -0.185,0.097 -0.279,0.145c-1.222,0.619 -2.541,1.023 -3.867,1.352l-0.052,0.012c-9.283,1.899 -19.188,0.178 -27.396,-5.07c-10.84,-6.931 -18.3,-18.237 -24.022,-29.203c-5.831,-11.172 -9.552,-23.947 -5.095,-36.002c0.678,-1.834 1.549,-3.597 2.629,-5.231c1.487,-2.247 3.572,-4.16 5.884,-5.602l0.026,-0.016c2.161,-1.244 4.579,-2.093 7.044,-2.353c0.415,-0.043 0.83,-0.051 1.245,-0.049Z" style="fill:#fff;fill-rule:nonzero;"/><path d="M53.256,18.167c0,0 0.453,0.28 0.453,0.28c0.272,0.379 0.413,0.468 0.454,0.959c0.045,0.549 -0.2,1.059 -0.39,1.58c-1.989,5.456 -5.264,10.385 -7.172,16.175c-1.409,4.275 -2.142,8.759 -2.235,13.118c-0.27,12.767 3.998,25.798 9.8,37.368c4.472,8.919 9.613,17.584 15.979,25.196c2.531,3.027 5.289,5.894 8.496,8.163c1.329,0.996 2.755,1.885 4.284,2.542c2.783,1.195 5.985,1.552 8.934,0.298c3.648,-1.55 6.367,-4.731 8.489,-7.98c1.459,-2.232 2.771,-4.59 3.54,-7.153c0.05,-0.176 0.033,-0.116 0.033,-0.116c0.184,-0.447 0.182,-0.617 0.584,-0.92c0.28,-0.212 0.647,-0.253 1.001,-0.279c0.049,-0.003 0.507,0.183 0.507,0.183c0.131,0.12 0.287,0.219 0.394,0.361c0.323,0.428 0.353,0.597 0.291,1.144c-0.376,3.133 -1.726,6.173 -3.188,9.044c-2.953,5.796 -7.687,11.03 -14.236,12.136c-3.491,0.589 -7.148,-0.185 -10.248,-1.606c-1.402,-0.643 -2.742,-1.416 -4.028,-2.274c0,0 -0.994,-0.703 -1.758,-1.309c-5.149,-4.086 -9.342,-9.283 -13.143,-14.711c-4.647,-6.639 -8.734,-13.661 -12.3,-20.932c-5.142,-10.483 -9.118,-21.649 -9.785,-33.295c-0.458,-8.513 1.746,-16.843 5.479,-24.016c0.713,-1.369 1.952,-3.426 3.163,-5.292c1.673,-2.581 3.587,-5.037 4.805,-7.812l0.001,-0.002c0.272,-0.4 0.306,-0.566 0.762,-0.781c0.316,-0.149 0.682,-0.115 1.034,-0.069Z" style="fill:#fff;fill-rule:nonzero;"/><path d="M70.765,67.27l0.619,0.339l0.271,0.713c0.142,6.306 -0.212,12.66 -2.112,18.609c-0.78,2.44 -1.859,4.771 -3.231,7.017c-1.676,2.741 -4.202,5.178 -6.705,7.559l-0.369,-0.235c-0.049,-0.031 -1.773,-1.133 -1.815,-1.171c-1.233,-1.105 -1.188,-1.158 -1.878,-2.36l-0.541,-0.929l-0.221,-0.376c2.061,-1.962 4.032,-4.026 5.705,-6.348c5.168,-6.047 7.709,-14.088 9.219,-21.926c0,0 0.387,-0.66 0.387,-0.66c0,0 0.623,-0.237 0.671,-0.232Z" style="fill:#fff;fill-rule:nonzero;"/></g></svg>