<?xml version="1.0" encoding="UTF-8" standalone="no"?>
<!DOCTYPE svg PUBLIC "-//W3C//DTD SVG 1.1//EN" "http://www.w3.org/Graphics/SVG/1.1/DTD/svg11.dtd">
<svg width="100%" height="100%" viewBox="0 0 866 183" version="1.1" xmlns="http://www.w3.org/2000/svg" xmlns:xlink="http://www.w3.org/1999/xlink" xml:space="preserve" xmlns:serif="http://www.serif.com/" style="fill-rule:evenodd;clip-rule:evenodd;stroke-linejoin:round;stroke-miterlimit:1.41421;">
    <g transform="matrix(1,0,0,1,-215.447,-1251.4)">
        <g transform="matrix(1,0,0,1,5.18059,896.976)">
            <g transform="matrix(3.70139,0,0,3.70139,-536.447,-4637.56)">
                <path d="M238.964,1349.08C238.964,1349.03 238.906,1348.97 238.82,1348.97L233.068,1348.97C232.982,1348.97 232.925,1349.03 232.925,1349.08L232.925,1350.58C232.925,1350.63 232.982,1350.69 233.068,1350.69L234.99,1350.69L234.99,1358.89C234.99,1358.95 235.048,1359.01 235.134,1359.01L236.755,1359.01C236.841,1359.01 236.898,1358.95 236.898,1358.89L236.898,1350.69L238.82,1350.69C238.906,1350.69 238.964,1350.63 238.964,1350.58L238.964,1349.08Z" style="fill:white;fill-rule:nonzero;"/>
                <path d="M246.05,1348.97C245.964,1348.97 245.907,1349.03 245.907,1349.08L245.907,1353L242.148,1353L242.148,1349.08C242.148,1349.03 242.091,1348.97 242.005,1348.97L240.384,1348.97C240.298,1348.97 240.24,1349.03 240.24,1349.08L240.24,1358.89C240.24,1358.95 240.298,1359.01 240.384,1359.01L242.005,1359.01C242.091,1359.01 242.148,1358.95 242.148,1358.89L242.148,1354.82L245.907,1354.82L245.907,1358.89C245.907,1358.95 245.964,1359.01 246.05,1359.01L247.686,1359.01C247.757,1359.01 247.815,1358.95 247.815,1358.89L247.815,1349.08C247.815,1349.03 247.757,1348.97 247.686,1348.97L246.05,1348.97Z" style="fill:white;fill-rule:nonzero;"/>
                <path d="M256.68,1350.79C256.766,1350.79 256.823,1350.73 256.823,1350.68L256.823,1349.08C256.823,1349.03 256.766,1348.97 256.68,1348.97L250.182,1348.97C250.11,1348.97 250.052,1349.03 250.052,1349.08L250.052,1358.89C250.052,1358.95 250.11,1359.01 250.182,1359.01L256.68,1359.01C256.766,1359.01 256.823,1358.95 256.823,1358.89L256.823,1357.32C256.823,1357.26 256.766,1357.2 256.68,1357.2L251.946,1357.2L251.946,1354.91L255.862,1354.91C255.948,1354.91 255.991,1354.85 255.991,1354.79L255.991,1353.23C255.991,1353.17 255.948,1353.11 255.862,1353.11L251.946,1353.11L251.946,1350.79L256.68,1350.79Z" style="fill:white;fill-rule:nonzero;"/>
                <path d="M268.156,1357.29C266.434,1357.29 265.043,1356.03 265.043,1353.99C265.043,1352.08 266.219,1350.69 268.156,1350.69C269.016,1350.69 269.791,1351.05 270.365,1351.62C270.422,1351.66 270.508,1351.66 270.566,1351.62L271.713,1350.48C271.771,1350.43 271.771,1350.35 271.713,1350.3C270.824,1349.38 269.562,1348.83 268.156,1348.83C265.201,1348.83 263.092,1350.96 263.092,1353.99C263.092,1357.14 265.373,1359.15 268.156,1359.15C269.562,1359.15 270.824,1358.59 271.713,1357.69C271.771,1357.65 271.771,1357.56 271.713,1357.52L270.566,1356.36C270.508,1356.31 270.422,1356.31 270.365,1356.36C269.791,1356.93 269.016,1357.29 268.156,1357.29Z" style="fill:white;fill-rule:nonzero;"/>
                <path d="M277.996,1348.83C274.654,1348.83 273.019,1351.41 273.019,1353.98C273.019,1356.54 274.654,1359.14 277.996,1359.14C281.281,1359.14 282.945,1356.54 282.945,1353.98C282.945,1351.41 281.281,1348.83 277.996,1348.83ZM277.996,1357.33C275.974,1357.33 274.97,1355.67 274.97,1354C274.97,1352.33 275.974,1350.65 277.996,1350.65C279.99,1350.65 281.009,1352.33 281.009,1354C281.009,1355.67 279.99,1357.33 277.996,1357.33Z" style="fill:white;fill-rule:nonzero;"/>
                <path d="M295.669,1349.08C295.669,1349.03 295.612,1348.97 295.526,1348.97L293.876,1348.97C293.833,1348.97 293.762,1349.01 293.747,1349.04L290.333,1356.43L286.761,1349.04C286.747,1349.01 286.675,1348.97 286.632,1348.97L284.982,1348.97C284.896,1348.97 284.839,1349.03 284.839,1349.08L284.839,1358.89C284.839,1358.95 284.896,1359.01 284.982,1359.01L286.603,1359.01C286.689,1359.01 286.747,1358.95 286.747,1358.89L286.747,1353.13L289.458,1358.55C289.472,1358.58 289.53,1358.62 289.573,1358.62L291.108,1358.62C291.151,1358.62 291.222,1358.58 291.237,1358.55L293.762,1353.24L293.762,1358.89C293.762,1358.95 293.819,1359.01 293.905,1359.01L295.526,1359.01C295.612,1359.01 295.669,1358.95 295.669,1358.89L295.669,1349.08Z" style="fill:white;fill-rule:nonzero;"/>
                <path d="M301.35,1348.97L298.094,1348.97C298.022,1348.97 297.965,1349.03 297.965,1349.08L297.965,1358.92C297.965,1358.98 298.022,1359.04 298.094,1359.04L299.729,1359.04C299.815,1359.04 299.858,1358.98 299.858,1358.92L299.858,1354.98L301.35,1354.98C301.594,1354.98 304.75,1354.95 304.75,1352C304.75,1349.03 301.752,1348.97 301.35,1348.97ZM301.35,1353.13L299.858,1353.13L299.858,1350.82L301.35,1350.82C301.58,1350.82 302.842,1350.88 302.842,1352C302.842,1353.1 301.608,1353.13 301.35,1353.13Z" style="fill:white;fill-rule:nonzero;"/>
                <path d="M310.072,1359.15C312.223,1359.15 313.859,1357.92 313.859,1355.78L313.859,1349.17C313.859,1349.11 313.801,1349.06 313.73,1349.06L312.094,1349.06C312.008,1349.06 311.951,1349.11 311.951,1349.17L311.951,1355.78C311.951,1356.8 311.019,1357.3 310.072,1357.3C309.139,1357.3 308.307,1356.77 308.193,1355.77L308.193,1349.17C308.193,1349.11 308.135,1349.06 308.049,1349.06L306.428,1349.06C306.342,1349.06 306.285,1349.11 306.285,1349.17L306.285,1355.78C306.285,1357.86 307.992,1359.15 310.072,1359.15Z" style="fill:white;fill-rule:nonzero;"/>
                <path d="M321.218,1349.17C321.218,1349.11 321.16,1349.06 321.074,1349.06L315.379,1349.06C315.293,1349.06 315.236,1349.11 315.236,1349.17L315.236,1350.66C315.236,1350.72 315.293,1350.76 315.379,1350.76L317.287,1350.76L317.287,1358.89C317.287,1358.95 317.33,1359.01 317.416,1359.01L319.037,1359.01C319.123,1359.01 319.166,1358.95 319.166,1358.89L319.166,1350.76L321.074,1350.76C321.16,1350.76 321.218,1350.72 321.218,1350.66L321.218,1349.17Z" style="fill:white;fill-rule:nonzero;"/>
                <path d="M329.136,1350.79C329.222,1350.79 329.28,1350.73 329.28,1350.68L329.28,1349.08C329.28,1349.03 329.222,1348.97 329.136,1348.97L322.638,1348.97C322.566,1348.97 322.509,1349.03 322.509,1349.08L322.509,1358.89C322.509,1358.95 322.566,1359.01 322.638,1359.01L329.136,1359.01C329.222,1359.01 329.28,1358.95 329.28,1358.89L329.28,1357.32C329.28,1357.26 329.222,1357.2 329.136,1357.2L324.402,1357.2L324.402,1354.91L328.319,1354.91C328.405,1354.91 328.448,1354.85 328.448,1354.79L328.448,1353.23C328.448,1353.17 328.405,1353.11 328.319,1353.11L324.402,1353.11L324.402,1350.79L329.136,1350.79Z" style="fill:white;fill-rule:nonzero;"/>
                <path d="M335.749,1358.94C335.764,1358.97 335.835,1359.01 335.878,1359.01L337.671,1359.01C337.772,1359.01 337.829,1358.94 337.786,1358.85C337.155,1357.45 336.481,1356.07 335.85,1354.65C336.854,1354.29 337.7,1353.49 337.7,1351.95C337.7,1349 334.874,1348.97 334.3,1348.97L331.058,1348.97C330.987,1348.97 330.929,1349.03 330.929,1349.08L330.929,1358.89C330.929,1358.95 330.987,1359.01 331.058,1359.01L332.694,1359.01C332.78,1359.01 332.837,1358.95 332.837,1358.89L332.837,1354.95L333.913,1354.95L335.749,1358.94ZM332.837,1350.79L334.3,1350.79C334.602,1350.79 335.792,1350.85 335.792,1351.95C335.792,1353.06 334.716,1353.11 334.3,1353.11L332.837,1353.11L332.837,1350.79Z" style="fill:white;fill-rule:nonzero;"/>
                <path d="M347.326,1359.15C348.975,1359.15 350.525,1358.08 350.525,1356.14C350.525,1354.94 349.936,1353.92 348.846,1353.41C348.115,1353.07 347.397,1353.07 347.326,1353.07C346.666,1353.07 346.035,1352.68 346.035,1351.94C346.035,1351.11 346.623,1350.69 347.326,1350.69C348,1350.69 348.559,1351.03 348.588,1351.77C348.588,1351.81 348.66,1351.87 348.731,1351.87L350.352,1351.87C350.438,1351.87 350.496,1351.81 350.496,1351.77C350.467,1350.02 349.09,1348.83 347.326,1348.83C345.676,1348.83 344.112,1350 344.112,1351.94C344.112,1353.14 344.715,1354.05 345.791,1354.55C346.537,1354.89 347.24,1354.89 347.326,1354.89C347.914,1354.92 348.617,1355.38 348.617,1356.14C348.617,1356.83 348.014,1357.29 347.326,1357.29C346.666,1357.29 346.063,1356.92 346.035,1356.18C346.035,1356.13 345.963,1356.07 345.891,1356.07L344.256,1356.07C344.17,1356.07 344.112,1356.13 344.112,1356.18C344.141,1358.08 345.547,1359.11 347.326,1359.15Z" style="fill:white;fill-rule:nonzero;"/>
                <path d="M356.965,1357.3C355.258,1357.3 353.881,1356.06 353.881,1354.03C353.881,1352.14 355.043,1350.66 356.965,1350.66C357.812,1350.66 358.586,1351.02 359.16,1351.58C359.218,1351.62 359.304,1351.62 359.361,1351.58L360.494,1350.45C360.552,1350.4 360.552,1350.32 360.494,1350.27C359.605,1349.37 358.357,1348.83 356.965,1348.83C354.025,1348.83 351.945,1351.03 351.945,1354.03C351.945,1357.16 354.211,1359.15 356.965,1359.15C358.357,1359.15 359.605,1358.59 360.494,1357.7C360.552,1357.66 360.552,1357.58 360.494,1357.53L359.361,1356.38C359.304,1356.34 359.218,1356.34 359.16,1356.38C358.586,1356.96 357.812,1357.3 356.965,1357.3Z" style="fill:white;fill-rule:nonzero;"/>
                <path d="M362.23,1358.89C362.23,1358.95 362.287,1359.01 362.373,1359.01L363.994,1359.01C364.08,1359.01 364.138,1358.95 364.138,1358.89L364.138,1349.08C364.138,1349.03 364.08,1348.97 363.994,1348.97L362.373,1348.97C362.287,1348.97 362.23,1349.03 362.23,1349.08L362.23,1358.89Z" style="fill:white;fill-rule:nonzero;"/>
                <path d="M372.874,1350.79C372.96,1350.79 373.017,1350.73 373.017,1350.68L373.017,1349.08C373.017,1349.03 372.96,1348.97 372.874,1348.97L366.376,1348.97C366.304,1348.97 366.247,1349.03 366.247,1349.08L366.247,1358.89C366.247,1358.95 366.304,1359.01 366.376,1359.01L372.874,1359.01C372.96,1359.01 373.017,1358.95 373.017,1358.89L373.017,1357.32C373.017,1357.26 372.96,1357.2 372.874,1357.2L368.14,1357.2L368.14,1354.91L372.056,1354.91C372.142,1354.91 372.185,1354.85 372.185,1354.79L372.185,1353.23C372.185,1353.17 372.142,1353.11 372.056,1353.11L368.14,1353.11L368.14,1350.79L372.874,1350.79Z" style="fill:white;fill-rule:nonzero;"/>
                <path d="M383.073,1349.07C383.073,1349.01 383.016,1348.95 382.93,1348.95L381.323,1348.95C381.237,1348.95 381.18,1349.01 381.18,1349.07L381.18,1355.74L376.575,1349C376.561,1348.97 376.503,1348.95 376.475,1348.95L374.825,1348.95C374.739,1348.95 374.696,1349.01 374.696,1349.07L374.696,1358.89C374.696,1358.95 374.739,1359.01 374.825,1359.01L376.46,1359.01C376.532,1359.01 376.589,1358.95 376.589,1358.89L376.589,1352.28L381.18,1358.97C381.194,1359 381.266,1359.01 381.294,1359.01L382.93,1359.01C383.016,1359.01 383.073,1358.95 383.073,1358.89L383.073,1349.07Z" style="fill:white;fill-rule:nonzero;"/>
                <path d="M390.016,1357.3C388.309,1357.3 386.932,1356.06 386.932,1354.03C386.932,1352.14 388.094,1350.66 390.016,1350.66C390.863,1350.66 391.637,1351.02 392.211,1351.58C392.268,1351.62 392.354,1351.62 392.412,1351.58L393.545,1350.45C393.602,1350.4 393.602,1350.32 393.545,1350.27C392.656,1349.37 391.408,1348.83 390.016,1348.83C387.075,1348.83 384.995,1351.03 384.995,1354.03C384.995,1357.16 387.262,1359.15 390.016,1359.15C391.408,1359.15 392.656,1358.59 393.545,1357.7C393.602,1357.66 393.602,1357.58 393.545,1357.53L392.412,1356.38C392.354,1356.34 392.268,1356.34 392.211,1356.38C391.637,1356.96 390.863,1357.3 390.016,1357.3Z" style="fill:white;fill-rule:nonzero;"/>
                <path d="M401.908,1350.79C401.994,1350.79 402.052,1350.73 402.052,1350.68L402.052,1349.08C402.052,1349.03 401.994,1348.97 401.908,1348.97L395.41,1348.97C395.338,1348.97 395.281,1349.03 395.281,1349.08L395.281,1358.89C395.281,1358.95 395.338,1359.01 395.41,1359.01L401.908,1359.01C401.994,1359.01 402.052,1358.95 402.052,1358.89L402.052,1357.32C402.052,1357.26 401.994,1357.2 401.908,1357.2L397.174,1357.2L397.174,1354.91L401.09,1354.91C401.177,1354.91 401.22,1354.85 401.22,1354.79L401.22,1353.23C401.22,1353.17 401.177,1353.11 401.09,1353.11L397.174,1353.11L397.174,1350.79L401.908,1350.79Z" style="fill:white;fill-rule:nonzero;"/>
                <path d="M413.757,1358.94C413.771,1358.98 413.829,1359.01 413.872,1359.01L415.651,1359.01C415.751,1359.01 415.808,1358.94 415.765,1358.85L411.849,1348.75C411.806,1348.65 411.634,1348.65 411.591,1348.75L407.675,1358.85C407.632,1358.94 407.689,1359.01 407.804,1359.01L409.568,1359.01C409.626,1359.01 409.683,1358.98 409.697,1358.94L410.085,1357.88L413.341,1357.88L413.757,1358.94ZM411.72,1353.17L412.724,1356.18L410.702,1356.18L411.72,1353.17Z" style="fill:white;fill-rule:nonzero;"/>
                <path d="M425.247,1349.07C425.247,1349.01 425.19,1348.95 425.104,1348.95L423.497,1348.95C423.411,1348.95 423.354,1349.01 423.354,1349.07L423.354,1355.74L418.749,1349C418.735,1348.97 418.677,1348.95 418.649,1348.95L416.999,1348.95C416.913,1348.95 416.87,1349.01 416.87,1349.07L416.87,1358.89C416.87,1358.95 416.913,1359.01 416.999,1359.01L418.634,1359.01C418.706,1359.01 418.763,1358.95 418.763,1358.89L418.763,1352.28L423.354,1358.97C423.368,1359 423.44,1359.01 423.469,1359.01L425.104,1359.01C425.19,1359.01 425.247,1358.95 425.247,1358.89L425.247,1349.07Z" style="fill:white;fill-rule:nonzero;"/>
                <path d="M427.643,1348.97C427.557,1348.97 427.5,1349.03 427.5,1349.08L427.5,1358.89C427.5,1358.95 427.557,1359.01 427.643,1359.01L429.264,1359.01C431.746,1359.01 435.088,1358.22 435.088,1353.96C435.088,1349.54 431.688,1348.97 429.264,1348.97L427.643,1348.97ZM429.407,1350.75C431.574,1350.63 433.18,1351.31 433.18,1353.96C433.18,1357.05 430.612,1357.27 429.407,1357.22L429.407,1350.75Z" style="fill:white;fill-rule:nonzero;"/>
                <path d="M208.294,1370.18C208.38,1370.18 208.438,1370.13 208.438,1370.07L208.438,1368.48C208.438,1368.42 208.38,1368.36 208.294,1368.36L201.882,1368.36C201.796,1368.36 201.739,1368.42 201.739,1368.48L201.739,1378.29C201.739,1378.35 201.796,1378.4 201.882,1378.4L208.423,1378.4C208.509,1378.4 208.567,1378.35 208.567,1378.29L208.567,1376.65C208.567,1376.6 208.509,1376.54 208.423,1376.54L203.661,1376.54L203.661,1374.27L207.606,1374.27C207.677,1374.27 207.735,1374.21 207.735,1374.16L207.735,1372.57C207.735,1372.51 207.677,1372.45 207.606,1372.45L203.661,1372.45L203.661,1370.18L208.294,1370.18Z" style="fill:white;fill-rule:nonzero;"/>
                <path d="M218.58,1368.46C218.58,1368.4 218.522,1368.35 218.436,1368.35L216.83,1368.35C216.743,1368.35 216.686,1368.4 216.686,1368.46L216.686,1375.13L212.081,1368.39C212.067,1368.36 212.01,1368.35 211.981,1368.35L210.331,1368.35C210.245,1368.35 210.202,1368.4 210.202,1368.46L210.202,1378.29C210.202,1378.35 210.245,1378.4 210.331,1378.4L211.967,1378.4C212.038,1378.4 212.096,1378.35 212.096,1378.29L212.096,1371.67L216.686,1378.36C216.7,1378.39 216.772,1378.4 216.801,1378.4L218.436,1378.4C218.522,1378.4 218.58,1378.35 218.58,1378.29L218.58,1368.46Z" style="fill:white;fill-rule:nonzero;"/>
                <path d="M225.436,1372.59C225.35,1372.59 225.293,1372.65 225.293,1372.71L225.293,1374.16C225.293,1374.21 225.35,1374.27 225.436,1374.27L227.933,1374.27L227.933,1375.65C227.344,1376.29 226.498,1376.7 225.58,1376.7C223.859,1376.7 222.467,1375.71 222.467,1373.38C222.467,1371.3 223.859,1370.07 225.58,1370.07C226.441,1370.07 227.23,1370.44 227.789,1371C227.846,1371.04 227.933,1371.04 227.99,1371L229.137,1369.85C229.195,1369.81 229.195,1369.72 229.137,1369.68C228.234,1368.76 226.986,1368.22 225.58,1368.22C222.797,1368.22 220.545,1370.4 220.545,1373.38C220.545,1376.68 222.668,1378.56 225.379,1378.56C226.484,1378.56 227.316,1378.19 228.047,1377.46L228.105,1378.33C228.105,1378.39 228.162,1378.43 228.234,1378.43L229.668,1378.43C229.754,1378.43 229.812,1378.37 229.812,1378.32L229.812,1372.71C229.812,1372.65 229.754,1372.59 229.668,1372.59L225.436,1372.59Z" style="fill:white;fill-rule:nonzero;"/>
                <path d="M231.92,1378.29C231.92,1378.35 231.978,1378.4 232.064,1378.4L233.685,1378.4C233.771,1378.4 233.828,1378.35 233.828,1378.29L233.828,1368.48C233.828,1368.42 233.771,1368.36 233.685,1368.36L232.064,1368.36C231.978,1368.36 231.92,1368.42 231.92,1368.48L231.92,1378.29Z" style="fill:white;fill-rule:nonzero;"/>
                <path d="M244.329,1368.46C244.329,1368.4 244.271,1368.35 244.185,1368.35L242.579,1368.35C242.493,1368.35 242.435,1368.4 242.435,1368.46L242.435,1375.13L237.831,1368.39C237.816,1368.36 237.759,1368.35 237.73,1368.35L236.08,1368.35C235.994,1368.35 235.951,1368.4 235.951,1368.46L235.951,1378.29C235.951,1378.35 235.994,1378.4 236.08,1378.4L237.716,1378.4C237.787,1378.4 237.845,1378.35 237.845,1378.29L237.845,1371.67L242.435,1378.36C242.45,1378.39 242.521,1378.4 242.55,1378.4L244.185,1378.4C244.271,1378.4 244.329,1378.35 244.329,1378.29L244.329,1368.46Z" style="fill:white;fill-rule:nonzero;"/>
                <path d="M253.208,1370.18C253.294,1370.18 253.352,1370.13 253.352,1370.07L253.352,1368.48C253.352,1368.42 253.294,1368.36 253.208,1368.36L246.71,1368.36C246.638,1368.36 246.581,1368.42 246.581,1368.48L246.581,1378.29C246.581,1378.35 246.638,1378.4 246.71,1378.4L253.208,1378.4C253.294,1378.4 253.352,1378.35 253.352,1378.29L253.352,1376.71C253.352,1376.65 253.294,1376.6 253.208,1376.6L248.474,1376.6L248.474,1374.3L252.391,1374.3C252.477,1374.3 252.52,1374.24 252.52,1374.19L252.52,1372.62C252.52,1372.57 252.477,1372.51 252.391,1372.51L248.474,1372.51L248.474,1370.18L253.208,1370.18Z" style="fill:white;fill-rule:nonzero;"/>
                <path d="M261.643,1370.18C261.729,1370.18 261.787,1370.13 261.787,1370.07L261.787,1368.48C261.787,1368.42 261.729,1368.36 261.643,1368.36L255.145,1368.36C255.073,1368.36 255.016,1368.42 255.016,1368.48L255.016,1378.29C255.016,1378.35 255.073,1378.4 255.145,1378.4L261.643,1378.4C261.729,1378.4 261.787,1378.35 261.787,1378.29L261.787,1376.71C261.787,1376.65 261.729,1376.6 261.643,1376.6L256.909,1376.6L256.909,1374.3L260.825,1374.3C260.912,1374.3 260.955,1374.24 260.955,1374.19L260.955,1372.62C260.955,1372.57 260.912,1372.51 260.825,1372.51L256.909,1372.51L256.909,1370.18L261.643,1370.18Z" style="fill:white;fill-rule:nonzero;"/>
                <path d="M268.256,1378.33C268.271,1378.36 268.342,1378.4 268.385,1378.4L270.178,1378.4C270.279,1378.4 270.336,1378.33 270.293,1378.25C269.662,1376.84 268.988,1375.46 268.357,1374.04C269.361,1373.68 270.207,1372.88 270.207,1371.35C270.207,1368.39 267.381,1368.36 266.807,1368.36L263.565,1368.36C263.494,1368.36 263.436,1368.42 263.436,1368.48L263.436,1378.29C263.436,1378.35 263.494,1378.4 263.565,1378.4L265.201,1378.4C265.287,1378.4 265.344,1378.35 265.344,1378.29L265.344,1374.34L266.42,1374.34L268.256,1378.33ZM265.344,1370.18L266.807,1370.18C267.109,1370.18 268.299,1370.24 268.299,1371.35C268.299,1372.45 267.223,1372.51 266.807,1372.51L265.344,1372.51L265.344,1370.18Z" style="fill:white;fill-rule:nonzero;"/>
                <path d="M272.043,1378.29C272.043,1378.35 272.101,1378.4 272.187,1378.4L273.808,1378.4C273.894,1378.4 273.951,1378.35 273.951,1378.29L273.951,1368.48C273.951,1368.42 273.894,1368.36 273.808,1368.36L272.187,1368.36C272.101,1368.36 272.043,1368.42 272.043,1368.48L272.043,1378.29Z" style="fill:white;fill-rule:nonzero;"/>
                <path d="M284.452,1368.46C284.452,1368.4 284.394,1368.35 284.308,1368.35L282.702,1368.35C282.615,1368.35 282.558,1368.4 282.558,1368.46L282.558,1375.13L277.953,1368.39C277.939,1368.36 277.882,1368.35 277.853,1368.35L276.203,1368.35C276.117,1368.35 276.074,1368.4 276.074,1368.46L276.074,1378.29C276.074,1378.35 276.117,1378.4 276.203,1378.4L277.839,1378.4C277.91,1378.4 277.968,1378.35 277.968,1378.29L277.968,1371.67L282.558,1378.36C282.572,1378.39 282.644,1378.4 282.673,1378.4L284.308,1378.4C284.394,1378.4 284.452,1378.35 284.452,1378.29L284.452,1368.46Z" style="fill:white;fill-rule:nonzero;"/>
                <path d="M291.309,1372.59C291.222,1372.59 291.165,1372.65 291.165,1372.71L291.165,1374.16C291.165,1374.21 291.222,1374.27 291.309,1374.27L293.805,1374.27L293.805,1375.65C293.216,1376.29 292.37,1376.7 291.452,1376.7C289.731,1376.7 288.339,1375.71 288.339,1373.38C288.339,1371.3 289.731,1370.07 291.452,1370.07C292.313,1370.07 293.102,1370.44 293.661,1371C293.718,1371.04 293.805,1371.04 293.862,1371L295.01,1369.85C295.067,1369.81 295.067,1369.72 295.01,1369.68C294.106,1368.76 292.858,1368.22 291.452,1368.22C288.669,1368.22 286.417,1370.4 286.417,1373.38C286.417,1376.68 288.54,1378.56 291.251,1378.56C292.356,1378.56 293.188,1378.19 293.919,1377.46L293.977,1378.33C293.977,1378.39 294.034,1378.43 294.106,1378.43L295.54,1378.43C295.626,1378.43 295.684,1378.37 295.684,1378.32L295.684,1372.71C295.684,1372.65 295.626,1372.59 295.54,1372.59L291.309,1372.59Z" style="fill:white;fill-rule:nonzero;"/>
                <path d="M305.582,1378.55C307.231,1378.55 308.781,1377.47 308.781,1375.53C308.781,1374.33 308.193,1373.31 307.102,1372.81C306.371,1372.46 305.653,1372.46 305.582,1372.46C304.922,1372.46 304.291,1372.08 304.291,1371.33C304.291,1370.5 304.879,1370.08 305.582,1370.08C306.256,1370.08 306.815,1370.43 306.844,1371.16C306.844,1371.2 306.916,1371.26 306.988,1371.26L308.609,1371.26C308.695,1371.26 308.752,1371.2 308.752,1371.16C308.723,1369.41 307.346,1368.22 305.582,1368.22C303.932,1368.22 302.368,1369.39 302.368,1371.33C302.368,1372.54 302.971,1373.44 304.047,1373.94C304.793,1374.29 305.496,1374.29 305.582,1374.29C306.17,1374.32 306.873,1374.77 306.873,1375.53C306.873,1376.22 306.27,1376.68 305.582,1376.68C304.922,1376.68 304.319,1376.31 304.291,1375.58C304.291,1375.52 304.219,1375.46 304.147,1375.46L302.512,1375.46C302.426,1375.46 302.368,1375.52 302.368,1375.58C302.397,1377.47 303.803,1378.5 305.582,1378.55Z" style="fill:white;fill-rule:nonzero;"/>
                <path d="M315.666,1368.56C315.666,1368.51 315.609,1368.45 315.523,1368.45L309.828,1368.45C309.742,1368.45 309.684,1368.51 309.684,1368.56L309.684,1370.05C309.684,1370.11 309.742,1370.15 309.828,1370.15L311.736,1370.15L311.736,1378.29C311.736,1378.35 311.779,1378.4 311.865,1378.4L313.486,1378.4C313.572,1378.4 313.615,1378.35 313.615,1378.29L313.615,1370.15L315.523,1370.15C315.609,1370.15 315.666,1370.11 315.666,1370.05L315.666,1368.56Z" style="fill:white;fill-rule:nonzero;"/>
                <path d="M320.744,1378.55C322.896,1378.55 324.531,1377.31 324.531,1375.17L324.531,1368.56C324.531,1368.51 324.474,1368.45 324.402,1368.45L322.767,1368.45C322.681,1368.45 322.624,1368.51 322.624,1368.56L322.624,1375.17C322.624,1376.19 321.691,1376.7 320.744,1376.7C319.812,1376.7 318.98,1376.16 318.865,1375.16L318.865,1368.56C318.865,1368.51 318.808,1368.45 318.722,1368.45L317.101,1368.45C317.015,1368.45 316.957,1368.51 316.957,1368.56L316.957,1375.17C316.957,1377.26 318.664,1378.55 320.744,1378.55Z" style="fill:white;fill-rule:nonzero;"/>
                <path d="M326.898,1368.36C326.812,1368.36 326.755,1368.42 326.755,1368.48L326.755,1378.29C326.755,1378.35 326.812,1378.4 326.898,1378.4L328.519,1378.4C331.001,1378.4 334.343,1377.61 334.343,1373.35C334.343,1368.93 330.944,1368.36 328.519,1368.36L326.898,1368.36ZM328.663,1370.14C330.829,1370.03 332.436,1370.7 332.436,1373.35C332.436,1376.44 329.868,1376.67 328.663,1376.61L328.663,1370.14Z" style="fill:white;fill-rule:nonzero;"/>
                <path d="M342.879,1370.18C342.965,1370.18 343.022,1370.13 343.022,1370.07L343.022,1368.48C343.022,1368.42 342.965,1368.36 342.879,1368.36L336.38,1368.36C336.309,1368.36 336.251,1368.42 336.251,1368.48L336.251,1378.29C336.251,1378.35 336.309,1378.4 336.38,1378.4L342.879,1378.4C342.965,1378.4 343.022,1378.35 343.022,1378.29L343.022,1376.71C343.022,1376.65 342.965,1376.6 342.879,1376.6L338.145,1376.6L338.145,1374.3L342.061,1374.3C342.147,1374.3 342.19,1374.24 342.19,1374.19L342.19,1372.62C342.19,1372.57 342.147,1372.51 342.061,1372.51L338.145,1372.51L338.145,1370.18L342.879,1370.18Z" style="fill:white;fill-rule:nonzero;"/>
                <path d="M353.078,1368.46C353.078,1368.4 353.021,1368.35 352.934,1368.35L351.328,1368.35C351.242,1368.35 351.184,1368.4 351.184,1368.46L351.184,1375.13L346.58,1368.39C346.565,1368.36 346.508,1368.35 346.479,1368.35L344.83,1368.35C344.743,1368.35 344.7,1368.4 344.7,1368.46L344.7,1378.29C344.7,1378.35 344.743,1378.4 344.83,1378.4L346.465,1378.4C346.537,1378.4 346.594,1378.35 346.594,1378.29L346.594,1371.67L351.184,1378.36C351.199,1378.39 351.27,1378.4 351.299,1378.4L352.934,1378.4C353.021,1378.4 353.078,1378.35 353.078,1378.29L353.078,1368.46Z" style="fill:white;fill-rule:nonzero;"/>
                <path d="M360.466,1368.56C360.466,1368.51 360.408,1368.45 360.322,1368.45L354.627,1368.45C354.541,1368.45 354.484,1368.51 354.484,1368.56L354.484,1370.05C354.484,1370.11 354.541,1370.15 354.627,1370.15L356.535,1370.15L356.535,1378.29C356.535,1378.35 356.578,1378.4 356.664,1378.4L358.285,1378.4C358.371,1378.4 358.414,1378.35 358.414,1378.29L358.414,1370.15L360.322,1370.15C360.408,1370.15 360.466,1370.11 360.466,1370.05L360.466,1368.56Z" style="fill:white;fill-rule:nonzero;"/>
                <path d="M364.583,1378.55C366.218,1378.55 367.753,1377.5 367.753,1375.56C367.753,1374.39 367.165,1373.35 366.074,1372.85C365.357,1372.52 364.654,1372.52 364.583,1372.52C363.923,1372.52 363.306,1372.05 363.306,1371.32C363.306,1370.47 363.88,1370.07 364.583,1370.07C365.242,1370.07 365.802,1370.41 365.831,1371.13C365.831,1371.19 365.902,1371.25 365.974,1371.25L367.581,1371.25C367.667,1371.25 367.724,1371.19 367.724,1371.13C367.695,1369.41 366.333,1368.23 364.583,1368.23C362.933,1368.23 361.398,1369.39 361.398,1371.32C361.398,1372.51 362,1373.48 363.062,1373.99C363.794,1374.32 364.496,1374.32 364.583,1374.32C365.156,1374.34 365.859,1374.82 365.859,1375.56C365.859,1376.27 365.257,1376.7 364.583,1376.7C363.923,1376.7 363.335,1376.34 363.306,1375.59C363.306,1375.53 363.234,1375.49 363.162,1375.49L361.541,1375.49C361.455,1375.49 361.398,1375.53 361.398,1375.59C361.427,1377.49 362.818,1378.5 364.583,1378.55Z" style="fill:white;fill-rule:nonzero;"/>
                <path d="M368.814,1371.6C368.814,1371.66 368.872,1371.72 368.958,1371.72L370.45,1371.72C370.536,1371.72 370.593,1371.66 370.593,1371.6L370.593,1368.48C370.593,1368.42 370.536,1368.36 370.45,1368.36L368.958,1368.36C368.872,1368.36 368.814,1368.42 368.814,1368.48L368.814,1371.6Z" style="fill:white;fill-rule:nonzero;"/>
                <path d="M379.716,1378.55C381.366,1378.55 382.915,1377.47 382.915,1375.53C382.915,1374.33 382.327,1373.31 381.237,1372.81C380.505,1372.46 379.788,1372.46 379.716,1372.46C379.057,1372.46 378.425,1372.08 378.425,1371.33C378.425,1370.5 379.014,1370.08 379.716,1370.08C380.391,1370.08 380.95,1370.43 380.979,1371.16C380.979,1371.2 381.051,1371.26 381.122,1371.26L382.743,1371.26C382.829,1371.26 382.887,1371.2 382.887,1371.16C382.858,1369.41 381.481,1368.22 379.716,1368.22C378.067,1368.22 376.503,1369.39 376.503,1371.33C376.503,1372.54 377.106,1373.44 378.182,1373.94C378.928,1374.29 379.63,1374.29 379.716,1374.29C380.305,1374.32 381.008,1374.77 381.008,1375.53C381.008,1376.22 380.405,1376.68 379.716,1376.68C379.057,1376.68 378.454,1376.31 378.425,1375.58C378.425,1375.52 378.354,1375.46 378.282,1375.46L376.647,1375.46C376.561,1375.46 376.503,1375.52 376.503,1375.58C376.532,1377.47 377.938,1378.5 379.716,1378.55Z" style="fill:white;fill-rule:nonzero;"/>
                <path d="M389.27,1368.22C385.928,1368.22 384.293,1370.8 384.293,1373.37C384.293,1375.94 385.928,1378.53 389.27,1378.53C392.555,1378.53 394.219,1375.94 394.219,1373.37C394.219,1370.8 392.555,1368.22 389.27,1368.22ZM389.27,1376.73C387.248,1376.73 386.243,1375.06 386.243,1373.4C386.243,1371.72 387.248,1370.04 389.27,1370.04C391.264,1370.04 392.283,1371.72 392.283,1373.4C392.283,1375.06 391.264,1376.73 389.27,1376.73Z" style="fill:white;fill-rule:nonzero;"/>
                <path d="M400.789,1376.7C399.082,1376.7 397.705,1375.45 397.705,1373.42C397.705,1371.53 398.867,1370.05 400.789,1370.05C401.636,1370.05 402.41,1370.41 402.984,1370.97C403.041,1371.02 403.127,1371.02 403.185,1370.97L404.318,1369.84C404.375,1369.8 404.375,1369.71 404.318,1369.67C403.429,1368.76 402.181,1368.22 400.789,1368.22C397.849,1368.22 395.769,1370.43 395.769,1373.42C395.769,1376.55 398.035,1378.55 400.789,1378.55C402.181,1378.55 403.429,1377.99 404.318,1377.1C404.375,1377.06 404.375,1376.97 404.318,1376.92L403.185,1375.78C403.127,1375.74 403.041,1375.74 402.984,1375.78C402.41,1376.35 401.636,1376.7 400.789,1376.7Z" style="fill:white;fill-rule:nonzero;"/>
                <path d="M406.054,1378.29C406.054,1378.35 406.111,1378.4 406.197,1378.4L407.818,1378.4C407.904,1378.4 407.962,1378.35 407.962,1378.29L407.962,1368.48C407.962,1368.42 407.904,1368.36 407.818,1368.36L406.197,1368.36C406.111,1368.36 406.054,1368.42 406.054,1368.48L406.054,1378.29Z" style="fill:white;fill-rule:nonzero;"/>
                <path d="M416.698,1370.18C416.784,1370.18 416.841,1370.13 416.841,1370.07L416.841,1368.48C416.841,1368.42 416.784,1368.36 416.698,1368.36L410.2,1368.36C410.128,1368.36 410.07,1368.42 410.07,1368.48L410.07,1378.29C410.07,1378.35 410.128,1378.4 410.2,1378.4L416.698,1378.4C416.784,1378.4 416.841,1378.35 416.841,1378.29L416.841,1376.71C416.841,1376.65 416.784,1376.6 416.698,1376.6L411.964,1376.6L411.964,1374.3L415.88,1374.3C415.966,1374.3 416.009,1374.24 416.009,1374.19L416.009,1372.62C416.009,1372.57 415.966,1372.51 415.88,1372.51L411.964,1372.51L411.964,1370.18L416.698,1370.18Z" style="fill:white;fill-rule:nonzero;"/>
                <path d="M423.641,1368.56C423.641,1368.51 423.583,1368.45 423.497,1368.45L417.802,1368.45C417.716,1368.45 417.659,1368.51 417.659,1368.56L417.659,1370.05C417.659,1370.11 417.716,1370.15 417.802,1370.15L419.71,1370.15L419.71,1378.29C419.71,1378.35 419.753,1378.4 419.839,1378.4L421.46,1378.4C421.546,1378.4 421.589,1378.35 421.589,1378.29L421.589,1370.15L423.497,1370.15C423.583,1370.15 423.641,1370.11 423.641,1370.05L423.641,1368.56Z" style="fill:white;fill-rule:nonzero;"/>
                <path d="M431.057,1368.36C431.043,1368.36 430.971,1368.38 430.957,1368.4L428.59,1371.8L426.209,1368.4C426.194,1368.38 426.122,1368.36 426.108,1368.36L424.114,1368.36C423.985,1368.36 423.928,1368.46 423.999,1368.55C425.204,1370.24 426.438,1372.02 427.629,1373.71L427.629,1378.29C427.629,1378.35 427.686,1378.4 427.772,1378.4L429.393,1378.4C429.479,1378.4 429.537,1378.35 429.537,1378.29L429.537,1373.71L433.166,1368.55C433.238,1368.46 433.18,1368.36 433.051,1368.36L431.057,1368.36Z" style="fill:white;fill-rule:nonzero;"/>
                <path d="M434.457,1376.55C433.912,1376.55 433.453,1377 433.453,1377.53C433.453,1378.03 433.826,1378.46 434.313,1378.52L434.313,1379.61C434.313,1379.71 434.428,1379.77 434.529,1379.71C435.102,1379.35 435.59,1378.4 435.59,1377.66C435.59,1377.06 435.275,1376.55 434.457,1376.55Z" style="fill:white;fill-rule:nonzero;"/>
                <path d="M382.126,1387.76C382.04,1387.76 381.983,1387.81 381.983,1387.87L381.983,1391.79L378.225,1391.79L378.225,1387.87C378.225,1387.81 378.167,1387.76 378.081,1387.76L376.46,1387.76C376.374,1387.76 376.317,1387.81 376.317,1387.87L376.317,1397.68C376.317,1397.74 376.374,1397.8 376.46,1397.8L378.081,1397.8C378.167,1397.8 378.225,1397.74 378.225,1397.68L378.225,1393.61L381.983,1393.61L381.983,1397.68C381.983,1397.74 382.04,1397.8 382.126,1397.8L383.762,1397.8C383.834,1397.8 383.891,1397.74 383.891,1397.68L383.891,1387.87C383.891,1387.81 383.834,1387.76 383.762,1387.76L382.126,1387.76Z" style="fill:white;fill-rule:nonzero;"/>
                <path d="M394.076,1387.94C394.162,1387.86 394.09,1387.76 393.961,1387.76L391.924,1387.76C391.895,1387.76 391.824,1387.78 391.809,1387.8L388.051,1392.52L388.051,1387.87C388.051,1387.81 387.994,1387.76 387.907,1387.76L386.272,1387.76C386.186,1387.76 386.129,1387.81 386.129,1387.87L386.129,1397.68C386.129,1397.74 386.186,1397.8 386.272,1397.8L387.907,1397.8C387.994,1397.8 388.051,1397.74 388.051,1397.68L388.051,1395.01C388.323,1394.74 388.567,1394.41 388.811,1394.14L391.738,1397.75C391.752,1397.77 391.824,1397.8 391.852,1397.8L393.99,1397.8C394.119,1397.8 394.191,1397.7 394.104,1397.61L390.088,1392.86L394.076,1387.94Z" style="fill:white;fill-rule:nonzero;"/>
                <path d="M399.183,1397.94C401.334,1397.94 402.97,1396.71 402.97,1394.57L402.97,1387.95C402.97,1387.9 402.912,1387.84 402.841,1387.84L401.205,1387.84C401.119,1387.84 401.062,1387.9 401.062,1387.95L401.062,1394.57C401.062,1395.59 400.129,1396.09 399.183,1396.09C398.25,1396.09 397.418,1395.56 397.303,1394.55L397.303,1387.95C397.303,1387.9 397.246,1387.84 397.16,1387.84L395.539,1387.84C395.453,1387.84 395.396,1387.9 395.396,1387.95L395.396,1394.57C395.396,1396.65 397.103,1397.94 399.183,1397.94Z" style="fill:white;fill-rule:nonzero;"/>
                <path d="M408.019,1397.94C409.654,1397.94 411.189,1396.89 411.189,1394.96C411.189,1393.78 410.601,1392.75 409.511,1392.24C408.794,1391.91 408.091,1391.91 408.019,1391.91C407.359,1391.91 406.742,1391.44 406.742,1390.71C406.742,1389.86 407.316,1389.46 408.019,1389.46C408.679,1389.46 409.238,1389.81 409.267,1390.52C409.267,1390.58 409.339,1390.64 409.411,1390.64L411.017,1390.64C411.103,1390.64 411.161,1390.58 411.161,1390.52C411.132,1388.8 409.769,1387.62 408.019,1387.62C406.369,1387.62 404.835,1388.79 404.835,1390.71C404.835,1391.9 405.437,1392.88 406.499,1393.38C407.23,1393.71 407.933,1393.71 408.019,1393.71C408.593,1393.74 409.296,1394.21 409.296,1394.96C409.296,1395.66 408.693,1396.09 408.019,1396.09C407.359,1396.09 406.771,1395.73 406.742,1394.98C406.742,1394.93 406.671,1394.88 406.599,1394.88L404.978,1394.88C404.892,1394.88 404.835,1394.93 404.835,1394.98C404.863,1396.88 406.255,1397.9 408.019,1397.94Z" style="fill:white;fill-rule:nonzero;"/>
                <path d="M418.118,1387.95C418.118,1387.9 418.061,1387.84 417.974,1387.84L412.28,1387.84C412.193,1387.84 412.136,1387.9 412.136,1387.95L412.136,1389.45C412.136,1389.51 412.193,1389.55 412.28,1389.55L414.187,1389.55L414.187,1397.68C414.187,1397.74 414.23,1397.8 414.317,1397.8L415.938,1397.8C416.024,1397.8 416.067,1397.74 416.067,1397.68L416.067,1389.55L417.974,1389.55C418.061,1389.55 418.118,1389.51 418.118,1389.45L418.118,1387.95Z" style="fill:white;fill-rule:nonzero;"/>
                <path d="M422.235,1397.94C423.87,1397.94 425.405,1396.89 425.405,1394.96C425.405,1393.78 424.817,1392.75 423.727,1392.24C423.01,1391.91 422.307,1391.91 422.235,1391.91C421.575,1391.91 420.958,1391.44 420.958,1390.71C420.958,1389.86 421.532,1389.46 422.235,1389.46C422.895,1389.46 423.454,1389.81 423.483,1390.52C423.483,1390.58 423.555,1390.64 423.626,1390.64L425.233,1390.64C425.319,1390.64 425.376,1390.58 425.376,1390.52C425.348,1388.8 423.985,1387.62 422.235,1387.62C420.585,1387.62 419.05,1388.79 419.05,1390.71C419.05,1391.9 419.653,1392.88 420.714,1393.38C421.446,1393.71 422.149,1393.71 422.235,1393.71C422.809,1393.74 423.512,1394.21 423.512,1394.96C423.512,1395.66 422.909,1396.09 422.235,1396.09C421.575,1396.09 420.987,1395.73 420.958,1394.98C420.958,1394.93 420.887,1394.88 420.815,1394.88L419.194,1394.88C419.108,1394.88 419.05,1394.93 419.05,1394.98C419.079,1396.88 420.471,1397.9 422.235,1397.94Z" style="fill:white;fill-rule:nonzero;"/>
                <path d="M430.985,1397.94C433.137,1397.94 434.772,1396.71 434.772,1394.57L434.772,1387.95C434.772,1387.9 434.715,1387.84 434.643,1387.84L433.008,1387.84C432.922,1387.84 432.865,1387.9 432.865,1387.95L432.865,1394.57C432.865,1395.59 431.932,1396.09 430.985,1396.09C430.053,1396.09 429.221,1395.56 429.106,1394.55L429.106,1387.95C429.106,1387.9 429.049,1387.84 428.963,1387.84L427.342,1387.84C427.256,1387.84 427.198,1387.9 427.198,1387.95L427.198,1394.57C427.198,1396.65 428.905,1397.94 430.985,1397.94Z" style="fill:white;fill-rule:nonzero;"/>
            </g>
        </g>
    </g>
</svg>
