<?xml version="1.0" encoding="UTF-8" standalone="no"?>
<!DOCTYPE svg PUBLIC "-//W3C//DTD SVG 1.1//EN" "http://www.w3.org/Graphics/SVG/1.1/DTD/svg11.dtd">
<svg width="100%" height="100%" viewBox="0 0 614 155" version="1.1" xmlns="http://www.w3.org/2000/svg" xmlns:xlink="http://www.w3.org/1999/xlink" xml:space="preserve" xmlns:serif="http://www.serif.com/" style="fill-rule:evenodd;clip-rule:evenodd;stroke-linejoin:round;stroke-miterlimit:1.41421;">
    <g transform="matrix(1,0,0,1,-774.131,-1301.58)">
        <g transform="matrix(1,0,0,1,5.18059,896.976)">
            <g transform="matrix(11.9061,0,0,11.9061,-6985.6,-14412.8)">
                <path d="M657.627,1255.37C655.305,1255.37 653.451,1253.7 653.451,1251C653.451,1248.46 655.035,1246.63 657.627,1246.63C658.779,1246.63 659.841,1247.09 660.597,1247.85L662.073,1246.37C660.939,1245.22 659.373,1244.52 657.627,1244.52C653.937,1244.52 651.309,1247.2 651.309,1251C651.309,1254.96 654.153,1257.48 657.627,1257.48C659.373,1257.48 660.939,1256.78 662.073,1255.64L660.597,1254.15C659.841,1254.91 658.779,1255.37 657.627,1255.37Z" style="fill:rgb(136,97,210);fill-rule:nonzero;"/>
                <path d="M667.995,1257.48C670.029,1257.48 671.919,1256.17 671.919,1253.75C671.919,1252.26 671.199,1251 669.867,1250.39C668.967,1249.97 668.085,1249.97 667.995,1249.97C667.059,1249.97 666.159,1249.42 666.159,1248.37C666.159,1247.2 667.005,1246.63 667.995,1246.63C668.949,1246.63 669.759,1247.09 669.795,1248.14L671.883,1248.14C671.847,1246 670.173,1244.52 667.995,1244.52C665.961,1244.52 664.053,1245.98 664.053,1248.37C664.053,1249.87 664.791,1250.98 666.105,1251.59C667.023,1252.01 667.887,1252.01 667.995,1252.01C668.841,1252.04 669.831,1252.69 669.831,1253.75C669.831,1254.74 668.967,1255.37 667.995,1255.37C667.059,1255.37 666.195,1254.85 666.159,1253.81L664.053,1253.81C664.089,1256.17 665.817,1257.43 667.995,1257.48Z" style="fill:rgb(136,97,210);fill-rule:nonzero;"/>
                <path d="M682.953,1246.81L682.953,1244.7L674.547,1244.7L674.547,1257.3L682.953,1257.3L682.953,1255.19L676.653,1255.19L676.653,1252.04L681.891,1252.04L681.891,1249.96L676.653,1249.96L676.653,1246.81L682.953,1246.81Z" style="fill:rgb(136,97,210);fill-rule:nonzero;"/>
                <path d="M688.893,1257.48C690.927,1257.48 692.817,1256.17 692.817,1253.75C692.817,1252.26 692.097,1251 690.765,1250.39C689.865,1249.97 688.983,1249.97 688.893,1249.97C687.957,1249.97 687.057,1249.42 687.057,1248.37C687.057,1247.2 687.903,1246.63 688.893,1246.63C689.847,1246.63 690.657,1247.09 690.693,1248.14L692.781,1248.14C692.745,1246 691.071,1244.52 688.893,1244.52C686.859,1244.52 684.951,1245.98 684.951,1248.37C684.951,1249.87 685.689,1250.98 687.003,1251.59C687.921,1252.01 688.785,1252.01 688.893,1252.01C689.739,1252.04 690.729,1252.69 690.729,1253.75C690.729,1254.74 689.865,1255.37 688.893,1255.37C687.957,1255.37 687.093,1254.85 687.057,1253.81L684.951,1253.81C684.987,1256.17 686.715,1257.43 688.893,1257.48Z" style="fill:rgb(136,97,210);fill-rule:nonzero;"/>
                <path d="M698.937,1257.48C700.971,1257.48 702.861,1256.17 702.861,1253.75C702.861,1252.26 702.141,1251 700.809,1250.39C699.909,1249.97 699.027,1249.97 698.937,1249.97C698.001,1249.97 697.101,1249.42 697.101,1248.37C697.101,1247.2 697.947,1246.63 698.937,1246.63C699.891,1246.63 700.701,1247.09 700.737,1248.14L702.825,1248.14C702.789,1246 701.115,1244.52 698.937,1244.52C696.903,1244.52 694.995,1245.98 694.995,1248.37C694.995,1249.87 695.733,1250.98 697.047,1251.59C697.965,1252.01 698.829,1252.01 698.937,1252.01C699.783,1252.04 700.773,1252.69 700.773,1253.75C700.773,1254.74 699.909,1255.37 698.937,1255.37C698.001,1255.37 697.137,1254.85 697.101,1253.81L694.995,1253.81C695.031,1256.17 696.759,1257.43 698.937,1257.48Z" style="fill:rgb(136,97,210);fill-rule:nonzero;"/>
            </g>
        </g>
    </g>
</svg>
