<?xml version="1.0" encoding="UTF-8" standalone="no"?>
<!DOCTYPE svg PUBLIC "-//W3C//DTD SVG 1.1//EN" "http://www.w3.org/Graphics/SVG/1.1/DTD/svg11.dtd">
<svg width="100%" height="100%" viewBox="0 0 80 57" version="1.1" xmlns="http://www.w3.org/2000/svg" xmlns:xlink="http://www.w3.org/1999/xlink" xml:space="preserve" xmlns:serif="http://www.serif.com/" style="fill-rule:evenodd;clip-rule:evenodd;stroke-linejoin:round;stroke-miterlimit:1.41421;">
    <g transform="matrix(1,0,0,1,-2330.47,-72.4491)">
        <g transform="matrix(0.866369,0,0,0.866369,311.423,14.2638)">
            <path d="M2420.64,77.291C2419.58,73.303 2416.46,70.163 2412.49,69.097C2405.31,67.16 2376.51,67.16 2376.51,67.16C2376.51,67.16 2347.72,67.16 2340.53,69.097C2336.57,70.163 2333.45,73.303 2332.39,77.291C2330.47,84.52 2330.47,99.601 2330.47,99.601C2330.47,99.601 2330.47,114.682 2332.39,121.911C2333.45,125.899 2336.57,129.039 2340.53,130.106C2347.72,132.042 2376.51,132.042 2376.51,132.042C2376.51,132.042 2405.31,132.042 2412.49,130.106C2416.46,129.039 2419.58,125.899 2420.64,121.911C2422.56,114.682 2422.56,99.601 2422.56,99.601C2422.56,99.601 2422.56,84.52 2420.64,77.291ZM2367.1,113.294L2367.1,85.908L2391.16,99.602L2367.1,113.294Z" style="fill:rgb(255,255,255);fill-rule:nonzero;"/>
        </g>
    </g>
</svg>
